<svg xmlns="http://www.w3.org/2000/svg" width="251" height="50" viewBox="0 0 251 50" fill="none"><path d="M51.5595 8.31039C54.0062 7.60831 56.4195 6.96403 58.7994 6.37755V6.39945C58.7994 6.43413 58.7994 6.4688 58.7994 6.49983C58.7994 6.52903 58.7994 6.55824 58.7994 6.58744C58.8213 6.82836 58.8505 7.0638 58.8887 7.29742V7.32298L58.9014 7.39234C58.9014 7.42701 58.916 7.46169 58.9197 7.49819L58.9361 7.57667C58.9452 7.60588 58.9506 7.64056 58.9597 7.67159L58.9743 7.73912C56.6466 8.30978 54.2788 8.94007 51.871 9.62998C48.3667 10.6375 44.9753 11.7198 41.7297 12.8569V19.1719C42.4448 16.8632 43.8592 14.8347 45.7767 13.3679C47.7901 11.8101 50.2616 10.9642 52.8053 10.9623C55.4627 10.9634 58.0395 11.877 60.1062 13.5508C62.173 15.2247 63.6049 17.5577 64.1634 20.1611C64.7481 17.4611 66.2732 15.058 68.4654 13.3825C70.4788 11.8247 72.9503 10.9788 75.494 10.9769C78.4584 10.9835 81.3081 12.1257 83.4593 14.1695C85.6106 16.2132 86.9006 19.0039 87.0652 21.9699V24.4594C93.857 20.935 98.9441 17.3413 101.58 14.1126L103.525 14.7879C100.29 18.3615 94.5437 22.271 87.0652 26.0345V40.0882C86.9661 42.4914 85.9445 44.7634 84.2136 46.4298C82.4828 48.0963 80.1765 49.0283 77.7762 49.0315H77.758C75.2897 49.0271 72.9242 48.0406 71.1816 46.2889C69.439 44.5372 68.462 42.1637 68.4654 39.6903V33.7841C67.1297 34.2465 65.7783 34.6973 64.4111 35.1366V40.0754C64.3124 42.4788 63.291 44.751 61.56 46.4176C59.8291 48.0841 57.5225 49.016 55.1221 49.0187H55.1039C52.7076 49.0158 50.4046 48.087 48.6744 46.4256C46.9442 44.7642 45.92 42.4982 45.815 40.0992C44.4526 40.3875 43.1084 40.6558 41.7825 40.904C41.4888 43.1469 40.3918 45.2064 38.6957 46.6991C36.9997 48.1919 34.8201 49.0162 32.5627 49.0187H32.5026C30.6254 49.019 28.7924 48.4475 27.2467 47.38C25.7009 46.3124 24.5155 44.7994 23.8475 43.0413C19.5127 43.2037 15.7152 43.0212 12.6279 42.4938L13.4293 40.8237C16.1049 41.4005 19.4908 41.6469 23.4232 41.5684C23.3021 40.9676 23.2411 40.3562 23.241 39.7432V20.7196C17.9846 23.4464 13.7499 26.217 10.8831 28.8252L8.45703 28.7102C11.8338 25.6074 16.9191 22.3221 23.241 19.1445V12.2363H39.4511C43.2997 10.8437 47.3558 9.52229 51.5668 8.31039M41.8499 39.4859C43.1467 39.2425 44.4641 38.9797 45.8022 38.6974V22.1688H41.8499V39.4859ZM64.4111 33.7111C65.7868 33.267 67.1382 32.8125 68.4654 32.3477V22.1688H64.4183V22.0776L64.4111 33.7111ZM73.4177 3.43539C84.9305 1.69237 94.713 1.63214 100.52 3.32953L98.6581 4.81156C93.4636 3.18717 84.5699 3.18717 73.771 4.79878L73.7492 4.6765C73.7401 4.61445 73.7273 4.55787 73.7128 4.49399V4.48486L73.6745 4.31147V4.30234C73.6618 4.24029 73.6435 4.18371 73.6308 4.11982L73.6053 4.02857C73.5963 4.00167 73.589 3.97424 73.5834 3.94644C73.567 3.88621 73.5488 3.8278 73.5324 3.76392C73.516 3.70004 73.4942 3.64529 73.476 3.58141L73.4213 3.42809M113.477 19.1025L113.513 28.3433C113.518 28.3769 113.517 28.4112 113.508 28.4442C113.5 28.4772 113.485 28.5081 113.465 28.5353C113.445 28.5625 113.419 28.5854 113.39 28.6026C113.361 28.6197 113.328 28.6309 113.295 28.6353L111.623 28.7814C111.55 29.4001 111.55 30.4568 111.55 31.1851C112.604 31.1851 114.828 31.1486 116.021 31.1486H120.494C120.585 30.3489 120.621 29.544 120.602 28.7394L119.185 28.5934C119.185 27.2026 119.331 21.7508 119.367 20.2506C120.203 19.5953 121.148 19.3033 121.766 19.3033C122.456 19.3033 122.82 19.4858 123.112 20.1046C123.334 20.6266 123.334 21.1358 123.334 21.9863C123.37 24.0323 123.37 27.2135 123.37 28.3488C123.37 28.4948 123.263 28.6043 123.188 28.6043L122.024 28.8233C121.988 29.5151 121.952 30.4988 121.952 31.2271C122.533 31.2271 124.277 31.1541 125.696 31.1541H130.091C130.128 30.4623 130.164 29.5114 130.164 28.7138L128.783 28.6043C128.82 26.9617 128.966 22.0958 128.966 20.1885C129.694 19.8235 130.676 19.5333 131.257 19.5333C132.129 19.5333 132.532 19.7888 132.783 20.5535C133.038 21.2508 133.002 21.9078 133.002 22.7875C133.002 23.9593 133.002 27.031 132.965 28.4218C132.965 28.5678 132.929 28.6773 132.747 28.7138L131.694 28.7868C131.656 29.4421 131.619 30.5353 131.619 31.2271C132.566 31.2271 134.419 31.1541 135.91 31.1541H140.309C140.414 30.345 140.463 29.5296 140.455 28.7138L138.601 28.6408C138.637 26.7043 138.892 23.2256 138.892 20.59C138.856 19.5716 138.499 18.5908 137.872 17.7884C136.817 16.4761 135.399 15.5982 134.091 15.5982C132.891 15.5982 132.452 15.6712 128.528 17.8213L128.383 17.7848C128.055 17.3887 126.419 15.4121 124.602 15.4121C123.221 15.4121 122.857 15.4851 119.331 17.6406L119.185 17.6041C119.076 16.9489 118.93 16.2571 118.784 15.5964C118.784 15.5234 118.748 15.4869 118.711 15.4869C118.495 15.4869 113.914 16.3685 111.477 16.582C111.404 17.2756 111.331 18.3743 111.331 19.0295L113.477 19.1025ZM151.614 29.8345C152.232 30.5645 152.707 31.1449 153.071 31.51C156.087 31.51 158.306 31.0354 158.96 30.8182C159.069 30.0882 158.996 29.1044 158.96 28.3762H157.211C156.993 28.4127 157.029 28.3397 157.029 28.0495C157.066 26.6277 157.211 22.8751 157.211 20.3619C157.211 17.9892 154.375 15.4066 151.794 15.4066C148.305 15.4066 145.36 17.0109 143.068 18.9766C143.505 19.7797 144.161 20.6904 144.85 21.1668C146.307 20.183 148.31 19.2723 149.323 19.2723C150.962 19.2723 151.467 20.5116 151.43 22.3331H149.868C144.305 22.3696 141.724 25.5015 141.724 27.4326C141.724 29.4731 144.704 31.5136 146.595 31.5136C147.831 31.5136 149.394 30.9661 151.467 29.8381L151.614 29.8345ZM147.651 26.8102C147.651 25.6439 148.815 24.6601 150.778 24.6601H151.432C151.468 25.4614 151.468 26.4853 151.468 27.2482C151.471 27.3555 151.432 27.4596 151.359 27.5384C150.851 27.867 150.015 28.1955 149.396 28.1955C148.742 28.1955 147.651 27.5749 147.651 26.8467V26.8102ZM162.267 19.1956L162.311 28.3743C162.311 28.5204 162.238 28.6299 162.02 28.6664L160.457 28.8124C160.42 29.4676 160.384 30.5244 160.384 31.2161C161.402 31.2161 163.662 31.1431 164.965 31.1431H169.518C169.591 30.4514 169.627 29.5005 169.627 28.7394L168.063 28.6299C168.101 27.1369 168.245 22.1086 168.354 20.4696C169.227 19.7048 170.281 19.3398 170.972 19.3398C171.554 19.3398 172.026 19.4858 172.318 20.2141C172.609 20.7963 172.609 21.7435 172.645 23.3168C172.68 24.4119 172.716 27.1059 172.609 28.3798C172.614 28.4134 172.613 28.4477 172.604 28.4807C172.596 28.5137 172.581 28.5447 172.561 28.5718C172.541 28.599 172.515 28.6219 172.486 28.6391C172.456 28.6562 172.424 28.6674 172.39 28.6718L171.154 28.8179C171.117 29.4731 171.081 30.5299 171.081 31.2581C171.88 31.2581 173.813 31.1486 175.408 31.1486H179.962C180.055 30.3387 180.092 29.5233 180.071 28.7083L178.29 28.6353C178.434 26.3758 178.654 22.2966 178.654 20.6576C178.654 19.891 178.472 19.0898 177.818 18.0695C176.982 16.7919 175.383 15.4103 174.073 15.4103C172.511 15.4103 171.928 15.5198 168.22 17.7428L168.037 17.7063C167.855 16.9762 167.71 16.2845 167.527 15.5928C167.527 15.5198 167.491 15.4833 167.455 15.4833C167.236 15.4833 162.765 16.54 160.147 16.6495C160.111 17.2683 160.038 18.325 160.038 19.0898L162.267 19.1956ZM191.316 29.8345C191.934 30.5645 192.409 31.1449 192.773 31.51C195.791 31.51 198.008 31.0354 198.664 30.8182C198.771 30.0882 198.7 29.1044 198.664 28.3762H196.917C196.7 28.4127 196.735 28.3397 196.735 28.0495C196.771 26.6277 196.917 22.8751 196.917 20.3619C196.917 17.9892 194.083 15.4066 191.5 15.4066C188.01 15.4066 185.065 17.0109 182.776 18.9766C183.211 19.7797 183.869 20.6904 184.557 21.1668C186.014 20.183 188.018 19.2723 189.029 19.2723C190.668 19.2723 191.174 20.5116 191.138 22.3331H189.573C184.011 22.3696 181.43 25.5015 181.43 27.4326C181.43 29.4731 184.411 31.5136 186.302 31.5136C187.539 31.5136 189.101 30.9661 191.174 29.8381L191.316 29.8345ZM187.353 26.8102C187.353 25.6439 188.517 24.6601 190.478 24.6601H191.134C191.171 25.4614 191.17 26.4853 191.17 27.2482C191.173 27.3555 191.134 27.4596 191.061 27.5384C190.551 27.867 189.715 28.1955 189.098 28.1955C188.444 28.1955 187.353 27.5749 187.353 26.8467V26.8102ZM204.15 27.3924C200.689 29.2176 200.507 29.2869 200.507 29.725C200.507 31.5501 201.525 32.2802 203.306 32.8934V33.1125C202.288 33.7695 201.303 34.2787 199.598 35.3355C199.052 35.6622 198.906 35.9542 198.906 36.4653C198.906 39.234 202.002 40.5445 206.869 40.5445C209.005 40.5672 211.13 40.2348 213.158 39.5607C216.176 38.4656 217.957 36.5018 217.957 34.2057C217.957 32.4937 217.52 31.9462 216.285 31.0354C215.01 30.1228 214.322 29.9805 210.286 29.798C207.268 29.6885 206.322 29.6155 206.322 28.8507C206.322 28.4857 206.614 28.1206 207.051 27.6844C210.723 27.7939 213.194 26.5547 214.322 25.3117C215.376 24.182 216.03 22.543 216.03 21.3402C216.03 20.2104 215.63 19.15 215.231 18.6809L215.267 18.5349C216.14 18.4619 217.52 18.3524 218.139 18.3159C218.285 17.4782 218.249 16.0582 217.994 15.2131C217.083 15.3226 214.684 15.6877 212.894 15.9067C212.75 15.9432 212.495 15.8702 212.165 15.7972C211.085 15.5195 209.973 15.3845 208.858 15.3957C203.84 15.3957 200.204 18.2739 200.204 21.9534C200.204 24.6912 202.35 26.29 204.131 27.1278L204.15 27.3924ZM206.22 21.3822C206.22 18.9401 206.913 17.5931 208.184 17.5931C208.84 17.5931 209.348 17.8487 209.641 18.3944C210.076 19.1244 210.187 20.0699 210.187 21.2727C210.187 23.9684 209.497 25.4614 208.333 25.4614C207.098 25.4614 206.224 24.6967 206.224 21.4187L206.22 21.3822ZM212.256 35.591C212.256 35.9706 212.158 36.3437 211.974 36.6752C211.789 37.0066 211.524 37.2855 211.202 37.4855C210.366 37.9947 209.348 38.1773 208.002 38.1773C206.512 38.1773 204.876 37.4125 204.876 36.1002C204.876 35.3702 205.204 34.5342 205.931 33.6965C206.73 33.7695 208.366 33.9502 209.53 34.0615C211.965 34.3536 212.262 34.5361 212.262 35.5563L212.256 35.591ZM218.837 24.6236C218.837 29.2504 222.662 31.51 226.907 31.51C228.253 31.51 231.78 30.8547 234.071 29.8345C234.022 28.932 233.863 28.0389 233.597 27.1752C232.14 27.6844 229.889 28.159 228.508 28.159C227.889 28.159 226.907 28.1225 226.035 27.2464C225.527 26.7719 225.124 25.9341 224.98 24.5488C227.671 24.5853 231.415 24.5853 232.616 24.2586C232.871 24.1856 234.255 22.8368 234.36 22.2509C234.383 20.4393 233.779 18.6756 232.652 17.2591C231.887 16.3283 230.217 15.4157 228.035 15.4157C222.582 15.4157 218.837 19.2486 218.837 24.5963V24.6236ZM227.09 17.8833C227.671 17.8833 228.144 18.4674 228.472 19.0861C228.762 19.7067 228.871 20.6904 228.871 21.5282C228.871 21.7454 228.798 21.8549 228.581 21.8932C227.397 22.0213 226.207 22.0822 225.017 22.0757C224.946 20.1082 225.199 19.38 225.563 18.7904C226.035 17.9874 226.545 17.8779 227.053 17.8779L227.09 17.8833ZM238.069 18.9036V28.4857C238.069 28.5952 237.996 28.6682 237.816 28.7047L236.324 28.8507C236.251 29.4694 236.215 30.5262 236.215 31.2234C237.342 31.2234 239.777 31.1504 241.132 31.1504H246.585C246.689 30.3535 246.738 29.5503 246.731 28.7467L243.75 28.6007C243.75 28.0914 243.786 26.8522 243.786 26.1969C243.895 24.7751 244.041 23.8242 244.586 22.8806C245.385 21.4972 245.861 21.0555 246.367 20.6594C246.613 20.4942 246.908 20.4171 247.203 20.4404C247.931 20.4404 248.986 20.6959 249.276 20.7306C249.895 20.2944 250.949 17.1606 250.949 15.8136C250.476 15.5581 249.421 15.3391 248.622 15.3391C247.095 15.3391 246.254 15.5946 243.786 20.1119H243.604C243.496 18.5824 243.422 17.0511 243.314 15.5216C243.314 15.4486 243.278 15.4486 243.241 15.4486C243.023 15.4486 237.959 16.2863 236.114 16.3958C235.999 17.1926 235.938 17.9963 235.932 18.8014L238.069 18.9036ZM111.302 45.2717V43.7203C111.561 44.1662 111.931 44.5368 112.377 44.7953C112.828 45.0451 113.338 45.171 113.854 45.1603C114.346 45.1811 114.826 45.0067 115.191 44.6748C115.359 44.5159 115.492 44.3229 115.581 44.1087C115.67 43.8945 115.713 43.6638 115.706 43.4319C115.711 43.0556 115.589 42.6886 115.358 42.3916C115.034 42.0165 114.637 41.7121 114.191 41.4972C114.149 41.4735 114.087 41.437 114.009 41.3932C112.415 40.5208 111.618 39.6337 111.617 38.7321C111.61 38.4036 111.68 38.078 111.821 37.7815C111.962 37.4851 112.172 37.2261 112.431 37.0256C112.976 36.5839 113.686 36.3631 114.56 36.3631C114.841 36.3631 115.147 36.3631 115.482 36.3923C115.817 36.4215 116.012 36.4178 116.065 36.4178H116.18C116.238 36.4178 116.287 36.4178 116.327 36.4178H116.691V37.8962C116.515 37.5973 116.254 37.3583 115.941 37.2099C115.59 37.0444 115.205 36.9632 114.817 36.9727C114.323 36.9458 113.833 37.0824 113.424 37.3614C113.26 37.4801 113.127 37.6374 113.038 37.8194C112.949 38.0014 112.905 38.2027 112.912 38.4054C112.912 39.0588 113.537 39.7147 114.788 40.3729L114.877 40.4167C115.661 40.8329 116.22 41.2417 116.555 41.6487C116.883 42.0321 117.062 42.5214 117.059 43.0267C117.06 43.4014 116.976 43.7714 116.814 44.1091C116.653 44.4469 116.417 44.7438 116.125 44.9778C115.482 45.5213 114.662 45.8079 113.821 45.7827C113.43 45.7804 113.041 45.737 112.659 45.6531C112.201 45.5509 111.75 45.4161 111.311 45.2497M125.192 45.6148C125.33 45.346 125.422 45.0561 125.465 44.757C125.533 44.3377 125.565 43.9133 125.56 43.4885C125.562 42.6409 125.44 41.7976 125.195 40.9862C124.875 40.0168 124.447 39.0864 123.92 38.2119C123.717 37.8552 123.493 37.5103 123.25 37.1789C123.081 36.94 122.887 36.7197 122.671 36.5218H123.817C124.048 36.5053 124.278 36.5649 124.472 36.6916C124.68 36.8861 124.842 37.1233 124.949 37.387C125.219 37.9345 125.467 38.5167 125.698 39.1154C125.929 39.714 126.173 40.4186 126.427 41.2308L127.631 39.0205L127.72 38.8544C128.196 37.9893 128.434 37.4162 128.434 37.1351C128.435 37.0293 128.412 36.9246 128.368 36.8285C128.321 36.7224 128.256 36.6249 128.177 36.5401H129.998C129.321 37.5512 128.765 38.403 128.33 39.0953C127.895 39.7877 127.578 40.323 127.379 40.7015C127.164 41.1269 127.008 41.5793 126.913 42.0466C126.8 42.7556 126.752 43.4735 126.771 44.1912C126.77 44.45 126.792 44.7084 126.838 44.9632C126.884 45.1959 126.956 45.4225 127.053 45.6385L125.192 45.6148ZM135.318 45.2497V43.6984C135.577 44.1438 135.947 44.5142 136.391 44.7734C136.843 45.023 137.353 45.1489 137.868 45.1384C138.361 45.1595 138.842 44.9851 139.207 44.6529C139.376 44.4942 139.509 44.3013 139.598 44.087C139.686 43.8726 139.728 43.6418 139.721 43.41C139.727 43.0339 139.605 42.6669 139.375 42.3696C139.05 41.9946 138.652 41.6903 138.205 41.4753C138.163 41.4516 138.102 41.4151 138.023 41.3713C136.431 40.4989 135.635 39.6118 135.634 38.7102C135.626 38.3817 135.696 38.0561 135.838 37.7596C135.979 37.4632 136.188 37.2042 136.448 37.0037C136.994 36.562 137.699 36.3412 138.575 36.3412C138.856 36.3412 139.163 36.3412 139.498 36.3704C139.834 36.3996 140.027 36.3959 140.081 36.3959C140.1 36.3959 140.138 36.3959 140.194 36.3959C140.251 36.3959 140.304 36.3959 140.344 36.3959H140.708V37.8743C140.532 37.575 140.271 37.3358 139.957 37.188C139.607 37.0223 139.223 36.9411 138.836 36.9508C138.341 36.9239 137.85 37.0605 137.44 37.3395C137.276 37.4582 137.144 37.6154 137.054 37.7975C136.965 37.9795 136.922 38.1808 136.929 38.3835C136.929 39.0369 137.554 39.6928 138.805 40.351C138.846 40.3711 138.876 40.3839 138.894 40.3948C139.677 40.811 140.236 41.2198 140.571 41.6268C140.901 42.0096 141.08 42.4994 141.076 43.0048C141.077 43.3795 140.993 43.7497 140.831 44.0875C140.67 44.4253 140.434 44.7222 140.141 44.9559C139.499 45.4994 138.678 45.786 137.837 45.7608C137.447 45.7584 137.057 45.715 136.675 45.6312C136.218 45.529 135.768 45.3942 135.329 45.2278M149.762 45.5929C149.891 45.4542 149.982 45.1457 150.035 44.6639C150.088 44.182 150.115 43.1599 150.115 41.5903V41.0428C150.115 40.278 150.115 39.5936 150.093 38.9949C150.071 38.3963 150.061 37.8195 150.033 37.2665H148.532C148.26 37.2604 147.988 37.2886 147.722 37.3505C147.511 37.408 147.31 37.4998 147.128 37.6224L147.467 36.5018H154.659C154.518 36.7375 154.312 36.9275 154.066 37.0493C153.77 37.1732 153.451 37.2305 153.131 37.2172L151.408 37.2318C151.383 37.8597 151.361 38.5003 151.35 39.1537C151.339 39.8071 151.332 40.4989 151.332 41.2308C151.332 43.017 151.359 44.1547 151.412 44.6438C151.465 45.1366 151.556 45.4487 151.687 45.5874L149.762 45.5929ZM160.57 45.5929C160.699 45.4542 160.79 45.136 160.843 44.6383C160.896 44.1407 160.923 43.0736 160.923 41.437V40.8548C160.923 39.0722 160.896 37.9357 160.843 37.4454C160.79 36.9526 160.699 36.6387 160.57 36.4999H161.45C162.074 36.4999 162.788 36.4999 163.582 36.478C164.376 36.4561 164.857 36.4561 165.029 36.4561H165.112C165.254 36.4561 165.395 36.4561 165.526 36.4561L165.637 37.7903C165.58 37.6443 165.49 37.5135 165.375 37.408C165.259 37.3026 165.121 37.2254 164.97 37.1826C164.637 37.0657 163.999 37 163.061 37H162.273C162.212 37.3264 162.178 37.6573 162.171 37.9893C162.143 38.4942 162.129 39.1829 162.129 40.0554V40.5244C162.244 40.5244 162.373 40.539 162.522 40.5445C162.672 40.55 162.907 40.5445 163.234 40.5445C163.792 40.5445 164.258 40.5317 164.637 40.5062C164.978 40.4864 165.317 40.4468 165.653 40.3875C165.38 40.6959 165.023 40.9174 164.626 41.0245C164.2 41.1462 163.489 41.207 162.493 41.207H162.338C162.258 41.207 162.187 41.207 162.129 41.207V42.1287C162.129 42.9975 162.139 43.6637 162.158 44.1273C162.165 44.4617 162.199 44.795 162.26 45.1238H163.074C164.01 45.1238 164.713 45.0484 165.183 44.8975C165.62 44.7716 166.003 44.5071 166.276 44.1437L166.034 45.5655C165.82 45.6043 165.604 45.6317 165.387 45.6476C165.145 45.6677 164.89 45.6768 164.624 45.6768C164.408 45.6768 163.978 45.672 163.335 45.6622C162.692 45.6622 162.154 45.6476 161.719 45.6476L160.57 45.5929ZM176.986 45.7918L173.707 37.3505L173.678 43.556V43.9977C173.669 44.3299 173.696 44.6621 173.756 44.9888C173.799 45.2059 173.884 45.4128 174.004 45.5984H172.39C172.659 45.3635 172.853 44.6103 172.973 43.3388C173.093 42.0673 173.154 40.1204 173.155 37.4983C173.163 37.3016 173.135 37.1052 173.075 36.9179C173.017 36.76 172.924 36.6176 172.802 36.5018H174.385C174.474 36.4923 174.564 36.5101 174.643 36.5529C174.697 36.6107 174.736 36.68 174.758 36.7555L177.319 43.6071L180.16 36.8705C180.19 36.7689 180.25 36.6786 180.332 36.6113C180.422 36.5592 180.526 36.5362 180.63 36.5456H182.013C181.867 36.7688 181.778 37.0245 181.754 37.2902C181.691 37.7773 181.664 38.2684 181.674 38.7595C181.674 41.1334 181.723 42.7949 181.821 43.744C181.92 44.6931 182.092 45.3246 182.339 45.6385H180.257C180.402 45.4073 180.5 45.149 180.543 44.8792C180.611 44.4503 180.641 44.0159 180.63 43.5816C180.63 43.5816 180.63 43.5469 180.63 43.4921C180.63 43.1271 180.612 42.7511 180.603 42.3569L180.519 37.3961L176.986 45.7918ZM188.46 45.2297V43.6783C188.719 44.1242 189.089 44.4948 189.535 44.7533C189.987 45.0031 190.496 45.129 191.012 45.1183C191.504 45.1392 191.984 44.9647 192.349 44.6328C192.518 44.4739 192.651 44.2809 192.74 44.0667C192.828 43.8525 192.871 43.6218 192.864 43.3899C192.87 43.0136 192.747 42.6466 192.516 42.3496C192.192 41.9751 191.795 41.6708 191.349 41.4552C191.307 41.4315 191.245 41.395 191.167 41.3512C189.574 40.4788 188.777 39.5918 188.775 38.6901C188.768 38.3616 188.838 38.036 188.979 37.7396C189.121 37.4431 189.33 37.1842 189.59 36.9836C190.135 36.5419 190.844 36.3211 191.719 36.3211C191.999 36.3211 192.305 36.3211 192.64 36.3503C192.975 36.3795 193.169 36.3758 193.223 36.3758C193.243 36.3758 193.28 36.3758 193.336 36.3758C193.393 36.3758 193.445 36.3758 193.485 36.3758H193.85V37.8542C193.673 37.5557 193.412 37.3168 193.099 37.1679C192.748 37.0024 192.363 36.9212 191.976 36.9307C191.481 36.9036 190.992 37.0402 190.582 37.3194C190.418 37.438 190.285 37.5952 190.195 37.7772C190.106 37.9593 190.062 38.1606 190.069 38.3634C190.069 39.0168 190.694 39.6727 191.945 40.3309L192.036 40.3748C192.819 40.7909 193.378 41.1997 193.713 41.6067C194.042 41.9901 194.221 42.4795 194.218 42.9847C194.218 43.3594 194.134 43.7294 193.973 44.0672C193.811 44.4049 193.575 44.7019 193.283 44.9358C192.64 45.4796 191.819 45.7662 190.977 45.7407C190.587 45.7384 190.198 45.6949 189.817 45.6111C189.359 45.5092 188.908 45.3744 188.469 45.2078" fill="white"></path><path fill-rule="evenodd" clip-rule="evenodd" d="M7.59927 35.6676L14.0505 35.3281L11.2037 41.2562L4.69238 41.6121L7.59927 35.6676Z" fill="white"></path><path fill-rule="evenodd" clip-rule="evenodd" d="M7.59939 35.6678L3.91113 30.4661L9.96534 30.5975L14.0507 35.3283L7.59939 35.6678Z" fill="white"></path><path fill-rule="evenodd" clip-rule="evenodd" d="M3.91107 30.4661L7.59933 35.6678L4.69243 41.6123L0.94043 36.3321L3.91107 30.4661Z" fill="white"></path><path fill-rule="evenodd" clip-rule="evenodd" d="M108.279 13.503L105.987 2.229L105.758 10.977L108.279 13.503Z" fill="white"></path><path fill-rule="evenodd" clip-rule="evenodd" d="M108.279 13.5029L105.758 10.9769L96.8169 9.5332L108.279 13.5029Z" fill="white"></path><path fill-rule="evenodd" clip-rule="evenodd" d="M96.8169 9.53328L105.987 2.229L105.758 10.977L96.8169 9.53328Z" fill="white"></path><path fill-rule="evenodd" clip-rule="evenodd" d="M66.3252 0.135498C67.8802 0.135498 69.3715 0.754487 70.471 1.8563C71.5705 2.95811 72.1882 4.45248 72.1882 6.01068C72.1882 7.56904 71.5705 9.0636 70.4711 10.1657C69.3716 11.2678 67.8804 11.8872 66.3252 11.8877C64.7698 11.8877 63.2781 11.2685 62.1782 10.1663C61.0783 9.0642 60.4604 7.56936 60.4604 6.01068C60.4609 4.45232 61.079 2.95794 62.1789 1.85619C63.2787 0.754428 64.7701 0.135498 66.3252 0.135498Z" fill="white"></path><mask id="mask0_198_21" style="mask-type:luminance" maskUnits="userSpaceOnUse" x="60" y="0" width="13" height="12"><path d="M60.4641 6.01251C60.4646 7.57024 61.0822 9.06406 62.1812 10.1657C63.2802 11.2674 64.7707 11.8867 66.3252 11.8877C67.8802 11.8877 69.3715 11.2687 70.471 10.1669C71.5705 9.06507 72.1882 7.5707 72.1882 6.01251C72.1882 4.45414 71.5705 2.95958 70.4711 1.85748C69.3716 0.755378 67.8804 0.135982 66.3252 0.135498C64.7698 0.135498 63.2781 0.754679 62.1782 1.85683C61.0783 2.95898 60.4604 4.45383 60.4604 6.01251" fill="white"></path></mask><g mask="url(#mask0_198_21)"><path d="M72.2099 0.027832H60.3711V11.999H72.2099V0.027832Z" fill="white"></path><path d="M72.2118 0.027832H60.3711V12.0027H72.2118V0.027832Z" fill="white"></path></g></svg> 